<?xml version="1.0" encoding="UTF-8"?>
<svg id="_レイヤー_1" data-name="レイヤー_1" xmlns="http://www.w3.org/2000/svg" viewBox="0 0 330.4 237.42">
  <defs>
    <style>
      .cls-1 {
        fill: #231815;
      }
    </style>
  </defs>
  <g>
    <path class="cls-1" d="M.28,167.27v-33.01h7c2.72,0,4.78.74,6.19,2.23,1.41,1.48,2.11,3.59,2.11,6.31v15.44c0,3.09-.75,5.37-2.25,6.84-1.5,1.47-3.66,2.2-6.47,2.2H.28ZM5.01,138.71v24.11h2.18c1.33,0,2.27-.33,2.83-1,.56-.66.83-1.71.83-3.13v-15.9c0-1.3-.26-2.3-.79-3.01-.53-.71-1.48-1.07-2.87-1.07h-2.18Z"/>
    <path class="cls-1" d="M22.21,167.27v-33.01h14.09v4.45h-9.37v9.69h8.16v4.45h-8.16v9.69h9.37v4.73h-14.09Z"/>
    <path class="cls-1" d="M56.84,143.76h-4.73v-1.07c0-1.08-.26-2.02-.77-2.81-.51-.79-1.37-1.18-2.57-1.18-.65,0-1.18.12-1.58.37-.4.25-.73.56-.97.93-.25.4-.42.86-.51,1.37-.09.51-.14,1.04-.14,1.6,0,.65.02,1.19.07,1.62.05.43.16.82.35,1.16.19.34.46.63.81.88.35.25.84.49,1.46.74l3.62,1.44c1.05.4,1.9.87,2.55,1.41.65.54,1.16,1.17,1.53,1.88.34.74.57,1.58.7,2.53.12.94.19,2.02.19,3.22,0,1.39-.14,2.68-.42,3.87-.28,1.19-.73,2.2-1.34,3.04-.65.87-1.5,1.55-2.55,2.04-1.05.49-2.33.74-3.85.74-1.14,0-2.21-.2-3.2-.6-.99-.4-1.84-.96-2.55-1.67-.71-.71-1.27-1.54-1.69-2.48-.42-.94-.63-1.97-.63-3.08v-1.76h4.73v1.48c0,.87.25,1.65.77,2.34.51.7,1.37,1.04,2.57,1.04.8,0,1.43-.12,1.88-.35.45-.23.8-.56,1.04-1,.25-.43.39-.95.44-1.55.05-.6.07-1.28.07-2.02,0-.86-.03-1.58-.09-2.13-.06-.56-.19-1-.37-1.34-.22-.34-.5-.62-.86-.83-.36-.22-.83-.45-1.41-.7l-3.38-1.39c-2.04-.83-3.41-1.94-4.1-3.31-.7-1.38-1.04-3.1-1.04-5.17,0-1.24.17-2.41.51-3.52.34-1.11.85-2.07,1.53-2.87.65-.8,1.48-1.44,2.48-1.92,1-.48,2.2-.72,3.59-.72,1.17,0,2.25.22,3.22.65.97.43,1.82,1,2.53,1.72,1.42,1.48,2.13,3.18,2.13,5.1v2.32Z"/>
    <path class="cls-1" d="M62.68,167.27v-33.01h4.73v33.01h-4.73Z"/>
    <path class="cls-1" d="M73.9,142.05c0-1.33.23-2.5.7-3.52.46-1.02,1.08-1.87,1.85-2.55.74-.65,1.58-1.14,2.53-1.48.94-.34,1.89-.51,2.85-.51s1.91.17,2.85.51c.94.34,1.8.83,2.57,1.48.74.68,1.34,1.53,1.81,2.55.46,1.02.7,2.19.7,3.52v1.67h-4.73v-1.67c0-1.14-.32-1.99-.95-2.53-.63-.54-1.38-.81-2.25-.81s-1.62.27-2.25.81c-.63.54-.95,1.38-.95,2.53v17.43c0,1.14.32,1.99.95,2.53.63.54,1.38.81,2.25.81s1.62-.27,2.25-.81c.63-.54.95-1.38.95-2.53v-6.21h-3.76v-4.17h8.48v10.39c0,1.39-.23,2.58-.7,3.57-.46.99-1.07,1.81-1.81,2.46-.77.68-1.63,1.19-2.57,1.53-.94.34-1.89.51-2.85.51s-1.91-.17-2.85-.51c-.94-.34-1.79-.85-2.53-1.53-.77-.65-1.39-1.47-1.85-2.46-.46-.99-.7-2.18-.7-3.57v-17.43Z"/>
    <path class="cls-1" d="M95.93,167.27v-33.01h4.54l7.14,19.89h.09v-19.89h4.73v33.01h-4.45l-7.23-19.84h-.09v19.84h-4.73Z"/>
    <path class="cls-1" d="M143.82,167.27l-1.58-2.5c-.93.93-1.89,1.62-2.87,2.09-.99.46-2.13.7-3.43.7-.93,0-1.81-.19-2.64-.56-.83-.37-1.56-.9-2.18-1.58-.62-.65-1.11-1.44-1.46-2.39s-.53-1.99-.53-3.13c0-1.82.43-3.42,1.3-4.78.86-1.36,1.95-2.63,3.25-3.8-.83-1.17-1.52-2.39-2.06-3.64-.54-1.25-.81-2.57-.81-3.96,0-.87.14-1.69.42-2.48s.68-1.48,1.21-2.06c.53-.56,1.19-1,1.99-1.34.8-.34,1.75-.51,2.83-.51,1.02,0,1.92.16,2.69.49s1.42.75,1.95,1.27c1.08,1.14,1.62,2.55,1.62,4.22,0,1.58-.48,3.06-1.44,4.45s-2.09,2.67-3.38,3.85c.31.43.63.93.95,1.48.32.56.69,1.14,1.09,1.76.77,1.33,1.54,2.55,2.32,3.66l2.55-3.48,2.92,2.04-3.52,4.54,3.57,5.66h-4.73ZM133.3,159.66c0,1.14.33,2.13,1,2.94.66.82,1.51,1.23,2.53,1.23.71,0,1.39-.22,2.04-.67.65-.45,1.14-.89,1.48-1.32l-4.54-7.23c-.71.71-1.31,1.48-1.79,2.3-.48.82-.72,1.74-.72,2.76ZM134.96,143.81c0,.71.17,1.48.51,2.29.34.82.77,1.65,1.3,2.48.28-.28.59-.59.93-.95.34-.35.65-.75.93-1.18.28-.43.51-.9.7-1.41.19-.51.28-1.06.28-1.65s-.2-1.13-.6-1.62c-.4-.49-.96-.74-1.67-.74s-1.28.29-1.72.86c-.43.57-.65,1.21-.65,1.92Z"/>
    <path class="cls-1" d="M164.96,167.27v-33.01h7c2.72,0,4.78.74,6.19,2.23,1.41,1.48,2.11,3.59,2.11,6.31v15.44c0,3.09-.75,5.37-2.25,6.84-1.5,1.47-3.66,2.2-6.47,2.2h-6.58ZM169.69,138.71v24.11h2.18c1.33,0,2.27-.33,2.83-1,.56-.66.83-1.71.83-3.13v-15.9c0-1.3-.26-2.3-.79-3.01-.53-.71-1.48-1.07-2.88-1.07h-2.18Z"/>
    <path class="cls-1" d="M187.03,167.27v-33.01h4.73v33.01h-4.73Z"/>
    <path class="cls-1" d="M198.53,167.27v-33.01h7.6c5.56,0,8.35,3.23,8.35,9.69,0,1.95-.3,3.6-.9,4.96-.6,1.36-1.66,2.46-3.18,3.29l5.1,15.07h-5.01l-4.4-14.09h-2.83v14.09h-4.73ZM203.26,138.71v10.29h2.69c.83,0,1.5-.12,1.99-.35.49-.23.88-.56,1.16-1,.25-.43.42-.97.51-1.6.09-.63.14-1.37.14-2.2s-.05-1.57-.14-2.2c-.09-.63-.28-1.18-.56-1.65-.59-.86-1.7-1.3-3.34-1.3h-2.46Z"/>
    <path class="cls-1" d="M220.46,167.27v-33.01h14.09v4.45h-9.37v9.69h8.16v4.45h-8.16v9.69h9.37v4.73h-14.09Z"/>
    <path class="cls-1" d="M254.81,157.86v2.04c0,1.02-.19,1.99-.58,2.9-.39.91-.92,1.72-1.6,2.43-.68.71-1.48,1.27-2.39,1.69-.91.42-1.89.63-2.94.63-.9,0-1.81-.12-2.74-.37-.93-.25-1.76-.68-2.5-1.3-.74-.62-1.35-1.41-1.83-2.39-.48-.97-.72-2.22-.72-3.73v-18.17c0-1.08.19-2.09.56-3.01s.9-1.73,1.58-2.41c.68-.68,1.49-1.21,2.43-1.6.94-.39,1.99-.58,3.13-.58,2.23,0,4.03.73,5.42,2.18.68.71,1.21,1.55,1.6,2.53s.58,2.03.58,3.18v1.85h-4.73v-1.58c0-.93-.26-1.73-.79-2.41-.53-.68-1.24-1.02-2.13-1.02-1.17,0-1.96.36-2.34,1.09-.39.73-.58,1.65-.58,2.76v16.88c0,.96.21,1.76.63,2.41.42.65,1.17.97,2.25.97.31,0,.64-.05,1-.16.36-.11.69-.29,1-.53.28-.25.51-.59.7-1.02.19-.43.28-.97.28-1.62v-1.62h4.73Z"/>
    <path class="cls-1" d="M263.95,167.27v-28.56h-5.47v-4.45h15.67v4.45h-5.47v28.56h-4.73Z"/>
    <path class="cls-1" d="M278.55,167.27v-33.01h4.73v33.01h-4.73Z"/>
    <path class="cls-1" d="M289.77,142.05c0-1.33.23-2.5.7-3.52s1.08-1.87,1.85-2.55c.74-.65,1.58-1.14,2.53-1.48.94-.34,1.89-.51,2.85-.51s1.91.17,2.85.51c.94.34,1.8.83,2.57,1.48.74.68,1.34,1.53,1.81,2.55s.7,2.19.7,3.52v17.43c0,1.39-.23,2.58-.7,3.57-.46.99-1.07,1.81-1.81,2.46-.77.68-1.63,1.19-2.57,1.53-.94.34-1.89.51-2.85.51s-1.91-.17-2.85-.51c-.94-.34-1.79-.85-2.53-1.53-.77-.65-1.39-1.47-1.85-2.46-.46-.99-.7-2.18-.7-3.57v-17.43ZM294.5,159.48c0,1.14.32,1.99.95,2.53.63.54,1.38.81,2.25.81s1.61-.27,2.25-.81c.63-.54.95-1.38.95-2.53v-17.43c0-1.14-.32-1.99-.95-2.53-.63-.54-1.38-.81-2.25-.81s-1.62.27-2.25.81c-.63.54-.95,1.38-.95,2.53v17.43Z"/>
    <path class="cls-1" d="M311.8,167.27v-33.01h4.54l7.14,19.89h.09v-19.89h4.73v33.01h-4.45l-7.23-19.84h-.09v19.84h-4.73Z"/>
    <path class="cls-1" d="M15.3,227.73v2.04c0,1.02-.19,1.99-.58,2.9-.39.91-.92,1.72-1.6,2.43-.68.71-1.48,1.27-2.39,1.69-.91.42-1.89.63-2.94.63-.9,0-1.81-.12-2.74-.37s-1.76-.68-2.5-1.3c-.74-.62-1.35-1.41-1.83-2.39-.48-.97-.72-2.22-.72-3.73v-18.17c0-1.08.19-2.09.56-3.01.37-.93.9-1.73,1.58-2.41.68-.68,1.49-1.21,2.43-1.6.94-.39,1.99-.58,3.13-.58,2.23,0,4.03.73,5.42,2.18.68.71,1.21,1.55,1.6,2.53.39.97.58,2.03.58,3.18v1.85h-4.73v-1.58c0-.93-.26-1.73-.79-2.41-.53-.68-1.24-1.02-2.13-1.02-1.18,0-1.96.36-2.34,1.09-.39.73-.58,1.65-.58,2.76v16.88c0,.96.21,1.76.63,2.41.42.65,1.17.97,2.25.97.31,0,.64-.05,1-.16.35-.11.69-.29,1-.53.28-.25.51-.59.7-1.02.19-.43.28-.97.28-1.62v-1.62h4.73Z"/>
    <path class="cls-1" d="M21.33,237.14v-33.01h7.6c5.56,0,8.35,3.23,8.35,9.69,0,1.95-.3,3.6-.9,4.96-.6,1.36-1.66,2.46-3.18,3.29l5.1,15.07h-5.01l-4.4-14.09h-2.83v14.09h-4.73ZM26.06,208.58v10.29h2.69c.83,0,1.5-.12,1.99-.35.49-.23.88-.56,1.16-1,.25-.43.42-.97.51-1.6.09-.63.14-1.37.14-2.2s-.05-1.57-.14-2.2c-.09-.63-.28-1.18-.56-1.65-.59-.86-1.7-1.3-3.34-1.3h-2.46Z"/>
    <path class="cls-1" d="M43.26,237.14v-33.01h14.09v4.45h-9.37v9.69h8.16v4.45h-8.16v9.69h9.37v4.73h-14.09Z"/>
    <path class="cls-1" d="M60.46,237.14l7.37-33.01h3.94l7.37,33.01h-4.73l-1.39-7.09h-6.44l-1.39,7.09h-4.73ZM72.14,225.6l-2.32-11.96h-.09l-2.32,11.96h4.73Z"/>
    <path class="cls-1" d="M86.75,237.14v-28.56h-5.47v-4.45h15.67v4.45h-5.47v28.56h-4.73Z"/>
    <path class="cls-1" d="M101.35,237.14v-33.01h4.73v33.01h-4.73Z"/>
    <path class="cls-1" d="M128.89,204.13l-6.77,33.01h-4.17l-6.72-33.01h5.01l3.76,23.04h.09l3.8-23.04h5.01Z"/>
    <path class="cls-1" d="M133.9,237.14v-33.01h14.09v4.45h-9.37v9.69h8.16v4.45h-8.16v9.69h9.37v4.73h-14.09Z"/>
    <path class="cls-1" d="M179.33,213.63h-4.73v-1.07c0-1.08-.25-2.02-.77-2.81-.51-.79-1.37-1.18-2.57-1.18-.65,0-1.17.12-1.58.37-.4.25-.73.56-.97.93-.25.4-.42.86-.51,1.37-.09.51-.14,1.04-.14,1.6,0,.65.02,1.19.07,1.62.05.43.16.82.35,1.16.19.34.46.63.81.88.35.25.84.49,1.46.74l3.62,1.44c1.05.4,1.9.87,2.55,1.41.65.54,1.16,1.17,1.53,1.88.34.74.57,1.58.7,2.53.12.94.18,2.02.18,3.22,0,1.39-.14,2.68-.42,3.87-.28,1.19-.73,2.2-1.34,3.04-.65.87-1.5,1.55-2.55,2.04-1.05.49-2.33.74-3.85.74-1.14,0-2.21-.2-3.2-.6-.99-.4-1.84-.96-2.55-1.67-.71-.71-1.27-1.54-1.69-2.48-.42-.94-.63-1.97-.63-3.08v-1.76h4.73v1.48c0,.87.25,1.65.76,2.34.51.7,1.37,1.04,2.57,1.04.8,0,1.43-.12,1.88-.35s.8-.56,1.04-1c.25-.43.39-.95.44-1.55.05-.6.07-1.28.07-2.02,0-.86-.03-1.58-.09-2.13-.06-.56-.19-1-.37-1.34-.22-.34-.5-.62-.86-.83-.36-.22-.83-.45-1.41-.7l-3.38-1.39c-2.04-.83-3.41-1.94-4.1-3.31-.7-1.38-1.04-3.1-1.04-5.17,0-1.24.17-2.41.51-3.52.34-1.11.85-2.07,1.53-2.87.65-.8,1.48-1.44,2.48-1.92,1-.48,2.2-.72,3.59-.72,1.17,0,2.25.22,3.22.65.97.43,1.82,1,2.53,1.72,1.42,1.48,2.13,3.18,2.13,5.1v2.32Z"/>
    <path class="cls-1" d="M188.14,237.14v-28.56h-5.47v-4.45h15.67v4.45h-5.47v28.56h-4.73Z"/>
    <path class="cls-1" d="M217.91,204.13v25.59c0,1.08-.19,2.08-.58,2.99-.39.91-.94,1.72-1.65,2.43-.71.71-1.53,1.27-2.46,1.67-.93.4-1.92.6-2.97.6s-2.03-.2-2.94-.6c-.91-.4-1.72-.96-2.43-1.67-.71-.71-1.27-1.52-1.67-2.43-.4-.91-.6-1.91-.6-2.99v-25.59h4.73v25.13c0,1.17.28,2.04.83,2.6.56.56,1.25.83,2.09.83s1.53-.28,2.09-.83c.56-.56.83-1.42.83-2.6v-25.13h4.73Z"/>
    <path class="cls-1" d="M224.54,237.14v-33.01h7c2.72,0,4.78.74,6.19,2.23,1.41,1.48,2.11,3.59,2.11,6.31v15.44c0,3.09-.75,5.37-2.25,6.84-1.5,1.47-3.66,2.2-6.47,2.2h-6.58ZM229.27,208.58v24.11h2.18c1.33,0,2.27-.33,2.83-1,.56-.66.83-1.71.83-3.13v-15.9c0-1.3-.26-2.3-.79-3.01-.53-.71-1.48-1.07-2.88-1.07h-2.18Z"/>
    <path class="cls-1" d="M246.61,237.14v-33.01h4.73v33.01h-4.73Z"/>
    <path class="cls-1" d="M257.83,211.92c0-1.33.23-2.5.7-3.52s1.08-1.87,1.85-2.55c.74-.65,1.58-1.14,2.53-1.48.94-.34,1.89-.51,2.85-.51s1.91.17,2.85.51c.94.34,1.8.83,2.57,1.48.74.68,1.34,1.53,1.81,2.55s.7,2.19.7,3.52v17.43c0,1.39-.23,2.58-.7,3.57-.46.99-1.07,1.81-1.81,2.46-.77.68-1.63,1.19-2.57,1.53-.94.34-1.89.51-2.85.51s-1.91-.17-2.85-.51c-.94-.34-1.79-.85-2.53-1.53-.77-.65-1.39-1.47-1.85-2.46-.46-.99-.7-2.18-.7-3.57v-17.43ZM262.56,229.35c0,1.14.32,1.99.95,2.53.63.54,1.38.81,2.25.81s1.61-.27,2.25-.81c.63-.54.95-1.38.95-2.53v-17.43c0-1.14-.32-1.99-.95-2.53-.63-.54-1.38-.81-2.25-.81s-1.62.27-2.25.81c-.63.54-.95,1.38-.95,2.53v17.43Z"/>
  </g>
  <g>
    <g>
      <g>
        <path class="cls-1" d="M.8,89.76V.93h23.44c9.1,0,16.01,2.48,20.72,7.45,4.71,4.97,7.06,12.01,7.06,21.11v30c0,10.35-2.51,17.98-7.53,22.89-5.02,4.92-12.24,7.37-21.65,7.37H.8ZM16.63,15.83v59.03h7.29c4.45,0,7.61-1.11,9.47-3.34,1.86-2.22,2.79-5.72,2.79-10.48v-31.55c0-4.35-.88-7.71-2.64-10.09-1.76-2.38-4.97-3.57-9.62-3.57h-7.29Z"/>
        <path class="cls-1" d="M128.65,89.76V.93h15.83v88.83h-15.83Z"/>
        <path class="cls-1" d="M266.13.93v63.99c0,3.62-.65,6.96-1.94,10.01-1.3,3.05-3.13,5.77-5.51,8.15s-5.12,4.24-8.23,5.59c-3.1,1.34-6.42,2.02-9.93,2.02s-6.8-.68-9.86-2.02c-3.05-1.34-5.77-3.21-8.15-5.59-2.38-2.38-4.24-5.1-5.59-8.15-1.35-3.05-2.02-6.39-2.02-10.01V.93h15.83v62.44c0,3.93.93,6.83,2.79,8.69,1.86,1.86,4.19,2.79,6.98,2.79s5.12-.93,6.98-2.79c1.86-1.86,2.79-4.76,2.79-8.69V.93h15.83Z"/>
        <path class="cls-1" d="M64.74,89.76V25.77c0-3.62.65-6.96,1.94-10.01,1.3-3.05,3.13-5.77,5.51-8.15,2.38-2.38,5.12-4.24,8.23-5.59C83.52.68,86.83,0,90.35,0c3.52,0,6.8.68,9.86,2.02,3.05,1.34,5.77,3.21,8.15,5.59,2.38,2.38,4.24,5.1,5.59,8.15,1.35,3.05,2.02,6.39,2.02,10.01v63.99h-15.83V27.32c0-3.93-.93-6.83-2.79-8.69-1.86-1.86-4.19-2.79-6.98-2.79-2.79,0-5.12.93-6.98,2.79-1.86,1.86-2.79,4.76-2.79,8.69v62.44h-15.83Z"/>
      </g>
      <rect class="cls-1" x="85.46" y="42.01" width="14.66" height="14.9"/>
    </g>
    <path class="cls-1" d="M278.82,89.76V.93h15.83v88.83"/>
    <polygon class="cls-1" points="278.82 60.9 312.4 .93 328.23 .93 294.65 60.9 278.82 60.9"/>
    <polygon class="cls-1" points="306.51 38.78 328.48 89.76 312.65 89.76 290.68 38.78 306.51 38.78"/>
    <g>
      <rect class="cls-1" x="157.17" y="35.42" width="42.3" height="14.9"/>
      <polygon class="cls-1" points="157.17 .93 157.17 15.83 157.17 15.83 157.17 15.83 157.17 89.76 173 89.76 173 15.83 204.35 15.83 204.35 .93 157.17 .93"/>
    </g>
  </g>
</svg>