<?xml version="1.0" encoding="UTF-8"?>
<svg xmlns="http://www.w3.org/2000/svg" version="1.1" viewBox="0 0 382.99 151.94">
  <defs>
    <style>
      .cls-1, .cls-2 {
        fill: #231815;
      }

      .cls-3 {
        fill: #fff;
      }

      .cls-2 {
        font-family: DINCondensed-Bold, 'DIN Condensed';
        font-size: 22px;
        font-weight: 700;
        letter-spacing: .05em;
      }
    </style>
  </defs>
  <!-- Generator: Adobe Illustrator 28.7.2, SVG Export Plug-In . SVG Version: 1.2.0 Build 154)  -->
  <g>
    <g id="_レイヤー_1" data-name="レイヤー_1">
      <text class="cls-2" transform="translate(225.3 99.33)"><tspan x="0" y="0">DESIGN &amp; DIRECTION</tspan><tspan x="0" y="33.16">CREATIVE STUDIO</tspan></text>
      <g>
        <g>
          <path class="cls-1" d="M187.88,78.8c32.33,60.72-43.3,73.15-94.74,73.15S0,145.6,0,93.8,41.7,0,93.13,0s68.44,29.4,94.74,78.8Z"/>
          <path class="cls-3" d="M179.2,87.13c21.31,41.18-39.81,56.4-85.92,56.4s-83.48-4.62-83.48-51.05S47.17,8.41,93.28,8.41s54.88,18.74,85.92,78.72Z"/>
        </g>
        <g>
          <path class="cls-1" d="M75.25,110.5V46.15h17.07c6.63,0,11.66,1.8,15.09,5.4,3.43,3.6,5.14,8.7,5.14,15.29v21.73c0,7.5-1.83,13.03-5.48,16.59-3.66,3.56-8.91,5.34-15.77,5.34h-16.05ZM86.78,56.95v42.76h5.31c3.24,0,5.54-.81,6.9-2.42,1.36-1.61,2.03-4.14,2.03-7.59v-22.86c0-3.15-.64-5.58-1.92-7.31-1.28-1.72-3.62-2.59-7.01-2.59h-5.31Z"/>
          <path class="cls-1" d="M75.25,110.5V46.15h17.07c6.63,0,11.66,1.8,15.09,5.4,3.43,3.6,5.14,8.7,5.14,15.29v21.73c0,7.5-1.83,13.03-5.48,16.59-3.66,3.56-8.91,5.34-15.77,5.34h-16.05ZM86.78,56.95v42.76h5.31c3.24,0,5.54-.81,6.9-2.42,1.36-1.61,2.03-4.14,2.03-7.59v-22.86c0-3.15-.64-5.58-1.92-7.31-1.28-1.72-3.62-2.59-7.01-2.59h-5.31Z"/>
        </g>
      </g>
      <g>
        <g>
          <g>
            <path class="cls-1" d="M226.6,62.56V20.41h11.12c4.32,0,7.6,1.18,9.83,3.54s3.35,5.7,3.35,10.02v14.24c0,4.91-1.19,8.53-3.57,10.86-2.38,2.33-5.81,3.5-10.27,3.5h-10.46ZM234.11,27.48v28.01h3.46c2.11,0,3.61-.53,4.49-1.58.88-1.05,1.33-2.71,1.33-4.97v-14.97c0-2.06-.42-3.66-1.25-4.79-.83-1.13-2.36-1.69-4.57-1.69h-3.46Z"/>
            <path class="cls-1" d="M287.26,62.56V20.41h7.51v42.15h-7.51Z"/>
            <path class="cls-1" d="M352.5,20.41v30.36c0,1.72-.31,3.3-.92,4.75-.62,1.45-1.49,2.74-2.62,3.87s-2.43,2.01-3.9,2.65c-1.47.64-3.05.96-4.71.96s-3.23-.32-4.68-.96c-1.45-.64-2.74-1.52-3.87-2.65-1.13-1.13-2.01-2.42-2.65-3.87-.64-1.45-.96-3.03-.96-4.75v-30.36h7.51v29.63c0,1.87.44,3.24,1.33,4.12.88.88,1.99,1.33,3.31,1.33s2.43-.44,3.31-1.33c.88-.88,1.33-2.26,1.33-4.12v-29.63h7.51Z"/>
            <path class="cls-1" d="M256.94,62.56v-30.36c0-1.72.31-3.3.92-4.75.62-1.45,1.49-2.74,2.62-3.87s2.43-2.01,3.9-2.65c1.47-.64,3.05-.96,4.71-.96,1.67,0,3.23.32,4.68.96,1.45.64,2.74,1.52,3.87,2.65,1.13,1.13,2.01,2.42,2.65,3.87.64,1.45.96,3.03.96,4.75v30.36h-7.51v-29.63c0-1.87-.44-3.24-1.33-4.12-.88-.88-1.99-1.33-3.31-1.33-1.33,0-2.43.44-3.31,1.33-.88.88-1.33,2.26-1.33,4.12v29.63h-7.51Z"/>
          </g>
          <rect class="cls-1" x="266.77" y="39.9" width="6.96" height="7.07"/>
        </g>
        <path class="cls-1" d="M358.52,62.56V20.41h7.51v42.15"/>
        <path class="cls-1" d="M382.99,35.23"/>
        <polygon class="cls-1" points="358.52 48.86 374.45 20.41 381.96 20.41 366.03 48.86 358.52 48.86"/>
        <polygon class="cls-1" points="371.66 38.37 382.08 62.56 374.57 62.56 364.15 38.37 371.66 38.37"/>
        <g>
          <rect class="cls-1" x="300.8" y="36.77" width="20.07" height="7.07"/>
          <polygon class="cls-1" points="300.8 20.41 300.8 27.48 300.8 27.48 300.8 27.48 300.8 62.56 308.31 62.56 308.31 27.48 323.19 27.48 323.19 20.41 300.8 20.41"/>
        </g>
      </g>
    </g>
  </g>
</svg>